<svg version="1.1" id="Layer_1" xmlns="http://www.w3.org/2000/svg" xmlns:xlink="http://www.w3.org/1999/xlink" x="0px" y="0px"
	 width="100%" viewBox="0 0 500 500" enable-background="new 0 0 500 500" xml:space="preserve">
<path fill="#090A0E" opacity="1.000000" stroke="none" 
	d="
M337.000000,501.000000 
	C224.666687,501.000000 112.833389,501.000000 1.000060,501.000000 
	C1.000040,334.333405 1.000040,167.666794 1.000020,1.000149 
	C167.666565,1.000100 334.333130,1.000100 500.999756,1.000050 
	C500.999847,167.666519 500.999847,334.333038 500.999939,500.999786 
	C446.500000,501.000000 392.000000,501.000000 337.000000,501.000000 
M242.518021,382.891846 
	C213.991760,339.914673 185.465485,296.937469 157.000763,254.053009 
	C199.944992,189.412491 242.699783,125.057152 285.454590,60.701805 
	C285.858795,60.834427 286.263031,60.967045 286.667267,61.099667 
	C286.667267,63.188251 286.667267,65.276840 286.667267,67.365425 
	C286.667267,182.185226 286.667267,297.005035 286.667328,411.824829 
	C286.667328,413.157990 286.314758,414.628906 286.765259,415.787140 
	C287.253967,417.043396 288.491211,418.008484 289.402008,419.100555 
	C289.855835,418.812225 290.309662,418.523865 290.763489,418.235504 
	C290.763489,416.257996 290.763489,414.280457 290.763489,412.302948 
	C290.763489,333.478912 290.763458,254.654861 290.763489,175.830826 
	C290.763489,136.168823 290.632904,96.505875 290.925659,56.846039 
	C290.963104,51.772991 290.525970,48.298611 284.878204,47.138512 
	C284.342896,47.879414 283.738983,48.657616 283.195374,49.475880 
	C239.806915,114.787109 196.416595,180.097107 153.057159,245.427597 
	C150.731644,248.931503 151.064346,252.506760 153.375031,255.987518 
	C189.006622,309.662323 224.625885,363.345306 260.257111,417.020386 
	C261.065826,418.238617 261.980804,419.386322 262.763916,420.454651 
	C266.874573,419.934357 266.849731,417.277527 266.848114,414.257233 
	C266.797058,319.935059 266.806274,225.612839 266.806244,131.290619 
	C266.806244,129.652237 266.806244,128.013855 266.806244,124.755280 
	C263.728973,126.450813 260.846130,127.062561 259.705963,128.810837 
	C234.063339,168.129517 208.602386,207.566727 183.141693,247.003891 
	C180.871216,250.520721 182.188095,252.990387 186.295898,253.010895 
	C197.460968,253.066620 208.627609,252.941635 219.791214,253.080734 
	C223.378403,253.125412 223.610916,251.741028 222.304398,248.723236 
	C210.624023,248.723236 199.058777,248.723236 186.893539,248.723236 
	C211.971039,209.928345 236.707016,171.661789 262.186035,132.245758 
	C262.186035,226.286972 262.186035,318.671448 262.186035,412.467407 
	C255.220306,401.994507 249.067383,392.743652 242.518021,382.891846 
z"/>
<path fill="#ECCF64" opacity="1.000000" stroke="none" 
	d="
M242.716248,383.192322 
	C249.067383,392.743652 255.220306,401.994507 262.186035,412.467407 
	C262.186035,318.671448 262.186035,226.286972 262.186035,132.245758 
	C236.707016,171.661789 211.971039,209.928345 186.893539,248.723236 
	C199.058777,248.723236 210.624023,248.723236 222.304398,248.723236 
	C223.610916,251.741028 223.378403,253.125412 219.791214,253.080734 
	C208.627609,252.941635 197.460968,253.066620 186.295898,253.010895 
	C182.188095,252.990387 180.871216,250.520721 183.141693,247.003891 
	C208.602386,207.566727 234.063339,168.129517 259.705963,128.810837 
	C260.846130,127.062561 263.728973,126.450813 266.806244,124.755280 
	C266.806244,128.013855 266.806244,129.652237 266.806244,131.290619 
	C266.806274,225.612839 266.797058,319.935059 266.848114,414.257233 
	C266.849731,417.277527 266.874573,419.934357 262.763916,420.454651 
	C261.980804,419.386322 261.065826,418.238617 260.257111,417.020386 
	C224.625885,363.345306 189.006622,309.662323 153.375031,255.987518 
	C151.064346,252.506760 150.731644,248.931503 153.057159,245.427597 
	C196.416595,180.097107 239.806915,114.787109 283.195374,49.475880 
	C283.738983,48.657616 284.342896,47.879414 284.878204,47.138512 
	C290.525970,48.298611 290.963104,51.772991 290.925659,56.846039 
	C290.632904,96.505875 290.763489,136.168823 290.763489,175.830826 
	C290.763458,254.654861 290.763489,333.478912 290.763489,412.302948 
	C290.763489,414.280457 290.763489,416.257996 290.763489,418.235504 
	C290.309662,418.523865 289.855835,418.812225 289.402008,419.100555 
	C288.491211,418.008484 287.253967,417.043396 286.765259,415.787140 
	C286.314758,414.628906 286.667328,413.157990 286.667328,411.824829 
	C286.667267,297.005035 286.667267,182.185226 286.667267,67.365425 
	C286.667267,65.276840 286.667267,63.188251 286.667267,61.099667 
	C286.263031,60.967045 285.858795,60.834427 285.454590,60.701805 
	C242.699783,125.057152 199.944992,189.412491 157.000763,254.053009 
	C185.465485,296.937469 213.991760,339.914673 242.716248,383.192322 
z"/>
</svg>